<svg width="32" height="32" viewBox="0 0 32 32" fill="none" xmlns="http://www.w3.org/2000/svg">
<path d="M6.4 11.1996C6.4 11.1996 6.4 11.1996 6.4 11.1996C6.4 5.89768 10.6981 1.59961 16 1.59961C16 1.59961 16 1.59961 16 1.59961C16 1.59961 16 1.59961 16 1.59961C21.3019 1.59961 25.6 5.89768 25.6 11.1996C25.6 11.1996 25.6 11.1996 25.6 11.1996V14.1291C25.6 14.9341 25.6 15.3366 25.6326 15.7313C25.7319 16.9323 26.0564 18.104 26.5892 19.1849C26.7643 19.5401 26.9714 19.8853 27.3855 20.5755L28.271 22.0513C29.1897 23.5824 29.649 24.3479 29.3532 24.9377C29.3352 24.9736 29.3153 25.0086 29.2938 25.0425C28.9403 25.5996 28.0476 25.5996 26.262 25.5996H5.73807C3.95252 25.5996 3.05974 25.5996 2.70626 25.0425C2.68473 25.0086 2.66492 24.9736 2.6469 24.9377C2.35107 24.348 2.81039 23.5824 3.72904 22.0513L4.6145 20.5755C5.02865 19.8852 5.23572 19.5401 5.41081 19.1849C5.94361 18.1039 6.26812 16.9323 6.36738 15.7313C6.4 15.3366 6.4 14.9341 6.4 14.1292V11.1996Z" fill="#C6CADA"/>
<path d="M19.8205 27.2004C19.9199 27.2004 20.0011 27.2811 19.9942 27.3803C19.9391 28.1634 19.5259 28.9056 18.8289 29.4631C18.0788 30.0632 17.0614 30.4004 16.0005 30.4004C14.9396 30.4004 13.9222 30.0632 13.1721 29.4631C12.4751 28.9056 12.0619 28.1634 12.0068 27.3803C11.9998 27.2811 12.0811 27.2004 12.1805 27.2004L16.0005 27.2004L19.8205 27.2004Z" fill="#474D66"/>
</svg>
