<svg width="30" height="26" viewBox="0 0 30 26" fill="none" xmlns="http://www.w3.org/2000/svg">
<path d="M15 20.673C16.7211 20.673 18.1802 20.0744 19.3773 18.8773C20.5744 17.6802 21.173 16.2211 21.173 14.5C21.173 12.7788 20.5744 11.3197 19.3773 10.1226C18.1802 8.92549 16.7211 8.32694 15 8.32694C13.2788 8.32694 11.8197 8.92549 10.6226 10.1226C9.42549 11.3197 8.82694 12.7788 8.82694 14.5C8.82694 16.2211 9.42549 17.6802 10.6226 18.8773C11.8197 20.0744 13.2788 20.673 15 20.673ZM15 18.4231C13.8923 18.4231 12.9615 18.0461 12.2076 17.2923C11.4538 16.5384 11.0769 15.6077 11.0769 14.5C11.0769 13.3923 11.4538 12.4615 12.2076 11.7076C12.9615 10.9538 13.8923 10.5769 15 10.5769C16.1077 10.5769 17.0384 10.9538 17.7923 11.7076C18.5461 12.4615 18.9231 13.3923 18.9231 14.5C18.9231 15.6077 18.5461 16.5384 17.7923 17.2923C17.0384 18.0461 16.1077 18.4231 15 18.4231ZM3.46155 25.7499C2.70385 25.7499 2.0625 25.4874 1.5375 24.9624C1.0125 24.4374 0.75 23.7961 0.75 23.0384V5.96155C0.75 5.20385 1.0125 4.5625 1.5375 4.0375C2.0625 3.5125 2.70385 3.25 3.46155 3.25H8.04229L10.0038 1.12405C10.25 0.852902 10.5476 0.639438 10.8966 0.483663C11.2457 0.327888 11.6134 0.25 12 0.25H18C18.3865 0.25 18.7543 0.327888 19.1033 0.483663C19.4523 0.639438 19.7499 0.852902 19.9961 1.12405L21.9576 3.25H26.5384C27.2961 3.25 27.9374 3.5125 28.4624 4.0375C28.9874 4.5625 29.2499 5.20385 29.2499 5.96155V23.0384C29.2499 23.7961 28.9874 24.4374 28.4624 24.9624C27.9374 25.4874 27.2961 25.7499 26.5384 25.7499H3.46155ZM3.46155 23.5H26.5384C26.673 23.5 26.7836 23.4567 26.8701 23.3701C26.9567 23.2836 27 23.173 27 23.0384V5.96155C27 5.82693 26.9567 5.71634 26.8701 5.62979C26.7836 5.54324 26.673 5.49996 26.5384 5.49996H20.9538L18.2019 2.49996H11.798L9.04612 5.49996H3.46155C3.32693 5.49996 3.21634 5.54324 3.12979 5.62979C3.04324 5.71634 2.99996 5.82693 2.99996 5.96155V23.0384C2.99996 23.173 3.04324 23.2836 3.12979 23.3701C3.21634 23.4567 3.32693 23.5 3.46155 23.5Z" fill="#C6CADA"/>
</svg>
