<svg width="8" height="5" viewBox="0 0 8 5" fill="none" xmlns="http://www.w3.org/2000/svg">
<path d="M3.56014 4.49249L0.671608 1.60398C0.631763 1.56413 0.600382 1.51964 0.577466 1.47051C0.554549 1.42136 0.543091 1.36871 0.543091 1.31255C0.543091 1.20022 0.581072 1.10264 0.657033 1.01979C0.732979 0.936934 0.833086 0.895508 0.957355 0.895508H7.04256C7.16683 0.895508 7.26693 0.937332 7.34288 1.02098C7.41884 1.10464 7.45682 1.20223 7.45682 1.31376C7.45682 1.34166 7.41392 1.43846 7.32812 1.60416L4.43977 4.49251C4.37337 4.55891 4.30474 4.60738 4.23387 4.63794C4.16298 4.66849 4.08501 4.68377 3.99996 4.68377C3.9149 4.68377 3.83693 4.66849 3.76605 4.63794C3.69517 4.60738 3.62654 4.5589 3.56014 4.49249Z" fill="#8F95B2"/>
</svg>
