<svg width="20" height="17" viewBox="0 0 20 17" fill="currentColor" xmlns="http://www.w3.org/2000/svg">
<path d="M9.99035 16.7099C9.77625 16.7099 9.56119 16.6715 9.34518 16.5945C9.12914 16.5176 8.93908 16.3971 8.77498 16.233L7.33848 14.9273C5.56539 13.3106 3.98238 11.7225 2.58943 10.1628C1.19648 8.60322 0.5 6.9324 0.5 5.15037C0.5 3.73115 0.978525 2.54302 1.93558 1.58597C2.89263 0.628916 4.08076 0.150391 5.49998 0.150391C6.30638 0.150391 7.10285 0.336292 7.8894 0.708092C8.67593 1.07989 9.37946 1.68374 9.99998 2.51964C10.6205 1.68374 11.324 1.07989 12.1105 0.708092C12.8971 0.336292 13.6936 0.150391 14.5 0.150391C15.9192 0.150391 17.1073 0.628916 18.0644 1.58597C19.0214 2.54302 19.5 3.73115 19.5 5.15037C19.5 6.95163 18.7916 8.64105 17.375 10.2186C15.9583 11.7962 14.3788 13.3709 12.6365 14.9426L11.2154 16.233C11.0513 16.3971 10.8596 16.5176 10.6404 16.5945C10.4211 16.6715 10.2045 16.7099 9.99035 16.7099ZM9.28075 4.03884C8.73973 3.21447 8.17018 2.61031 7.5721 2.22634C6.97402 1.84236 6.28331 1.65037 5.49998 1.65037C4.49998 1.65037 3.66664 1.9837 2.99998 2.65037C2.33331 3.31703 1.99998 4.15037 1.99998 5.15037C1.99998 5.95293 2.25863 6.79203 2.77593 7.66767C3.29323 8.5433 3.94257 9.4138 4.72398 10.2792C5.50539 11.1446 6.35187 11.9901 7.2634 12.8157C8.17493 13.6413 9.01981 14.4087 9.79803 15.1177C9.85573 15.169 9.92304 15.1946 9.99998 15.1946C10.0769 15.1946 10.1442 15.169 10.2019 15.1177C10.9801 14.4087 11.825 13.6413 12.7366 12.8157C13.6481 11.9901 14.4946 11.1446 15.276 10.2792C16.0574 9.4138 16.7067 8.5433 17.224 7.66767C17.7413 6.79203 18 5.95293 18 5.15037C18 4.15037 17.6666 3.31703 17 2.65037C16.3333 1.9837 15.5 1.65037 14.5 1.65037C13.7166 1.65037 13.0259 1.84236 12.4279 2.22634C11.8298 2.61031 11.2602 3.21447 10.7192 4.03884C10.6346 4.16704 10.5282 4.2632 10.4 4.32732C10.2718 4.39142 10.1384 4.42347 9.99998 4.42347C9.86153 4.42347 9.72819 4.39142 9.59998 4.32732C9.47178 4.2632 9.36537 4.16704 9.28075 4.03884Z" fill="currentColor"/>
</svg>
