<svg width="16" height="16" viewBox="0 0 16 16" fill="none" xmlns="http://www.w3.org/2000/svg">
<path d="M7.80052 12.4788C7.2086 13.0707 6.49548 13.3667 5.66115 13.3667C4.82682 13.3668 4.11374 13.0709 3.5219 12.479C2.93005 11.8872 2.63408 11.174 2.63396 10.3395C2.63384 9.50503 2.92974 8.79182 3.52165 8.19991L4.94492 6.77663C5.0451 6.67646 5.16296 6.62639 5.29851 6.62643C5.43407 6.62645 5.55195 6.67658 5.65217 6.7768C5.75239 6.87701 5.80245 6.99484 5.80237 7.13029C5.8023 7.26573 5.75218 7.38354 5.65201 7.48372L4.22819 8.90753C3.83269 9.30304 3.63494 9.78031 3.63494 10.3393C3.63494 10.8984 3.83287 11.3758 4.22873 11.7717C4.62459 12.1676 5.10204 12.3655 5.66108 12.3655C6.22012 12.3655 6.69739 12.1677 7.09289 11.7722L8.51671 10.3484C8.61688 10.2482 8.73474 10.1982 8.87029 10.1982C9.00585 10.1982 9.12373 10.2484 9.22395 10.3486C9.32417 10.4488 9.37424 10.5666 9.37416 10.7021C9.37409 10.8375 9.32397 10.9553 9.22379 11.0555L7.80052 12.4788ZM6.9393 9.76821C6.83912 9.86839 6.72126 9.91846 6.58572 9.91843C6.45016 9.9184 6.33227 9.86827 6.23206 9.76806C6.13184 9.66784 6.08177 9.55 6.08185 9.41455C6.08192 9.27911 6.13204 9.1613 6.23221 9.06113L9.06064 6.2327C9.16081 6.13253 9.27868 6.08245 9.41423 6.08248C9.54978 6.08252 9.66766 6.13264 9.76788 6.23286C9.8681 6.33308 9.91817 6.45091 9.9181 6.58635C9.91802 6.7218 9.8679 6.83961 9.76772 6.93979L6.9393 9.76821ZM11.055 9.22428C10.9548 9.32446 10.837 9.37452 10.7014 9.37448C10.5659 9.37446 10.448 9.32434 10.3478 9.22412C10.2475 9.12391 10.1975 9.00607 10.1976 8.87062C10.1976 8.73518 10.2478 8.61737 10.3479 8.5172L11.7717 7.09338C12.1672 6.69788 12.365 6.22061 12.365 5.66157C12.365 5.10253 12.1671 4.62508 11.7712 4.22922C11.3753 3.83336 10.8979 3.63543 10.3389 3.63543C9.77981 3.63543 9.30254 3.83318 8.90704 4.22868L7.48323 5.6525C7.38305 5.75267 7.26519 5.80274 7.12965 5.80271C6.99409 5.80268 6.8762 5.75256 6.77599 5.65234C6.67577 5.55212 6.6257 5.43429 6.62578 5.29884C6.62585 5.1634 6.67597 5.04559 6.77614 4.94541L8.19942 3.52214C8.79133 2.93023 9.50445 2.63424 10.3388 2.63419C11.1731 2.63413 11.8862 2.93003 12.478 3.52187C13.0699 4.11371 13.3659 4.82688 13.366 5.66138C13.3661 6.49589 13.0702 7.20909 12.4783 7.80101L11.055 9.22428Z" fill="#4CBFA4"/>
</svg>
