<svg width="21" height="20" viewBox="0 0 21 20" fill="none" xmlns="http://www.w3.org/2000/svg">
<path d="M5.50004 18.3334C5.04171 18.3334 4.64935 18.1702 4.32296 17.8438C3.99657 17.5174 3.83337 17.125 3.83337 16.6667V8.33337C3.83337 7.87504 3.99657 7.48268 4.32296 7.15629C4.64935 6.8299 5.04171 6.66671 5.50004 6.66671H6.33337V5.00004C6.33337 3.84726 6.73962 2.86462 7.55212 2.05212C8.36462 1.23962 9.34726 0.833374 10.5 0.833374C11.6528 0.833374 12.6355 1.23962 13.448 2.05212C14.2605 2.86462 14.6667 3.84726 14.6667 5.00004V6.66671H15.5C15.9584 6.66671 16.3507 6.8299 16.6771 7.15629C17.0035 7.48268 17.1667 7.87504 17.1667 8.33337V16.6667C17.1667 17.125 17.0035 17.5174 16.6771 17.8438C16.3507 18.1702 15.9584 18.3334 15.5 18.3334H5.50004ZM10.5 14.1667C10.9584 14.1667 11.3507 14.0035 11.6771 13.6771C12.0035 13.3507 12.1667 12.9584 12.1667 12.5C12.1667 12.0417 12.0035 11.6493 11.6771 11.323C11.3507 10.9966 10.9584 10.8334 10.5 10.8334C10.0417 10.8334 9.64935 10.9966 9.32296 11.323C8.99657 11.6493 8.83337 12.0417 8.83337 12.5C8.83337 12.9584 8.99657 13.3507 9.32296 13.6771C9.64935 14.0035 10.0417 14.1667 10.5 14.1667ZM8.00004 6.66671H13V5.00004C13 4.3056 12.757 3.71532 12.2709 3.22921C11.7848 2.7431 11.1945 2.50004 10.5 2.50004C9.8056 2.50004 9.21532 2.7431 8.72921 3.22921C8.2431 3.71532 8.00004 4.3056 8.00004 5.00004V6.66671Z" fill="#8F95B2"/>
</svg>
