<svg width="5" height="8" viewBox="0 0 5 8" fill="none" xmlns="http://www.w3.org/2000/svg">
<path d="M4.99619 4.00025C4.99619 4.09064 4.98177 4.17477 4.95292 4.25265C4.92407 4.33053 4.87455 4.40457 4.80436 4.47476L1.43369 7.84543C1.32985 7.94928 1.19933 8.0024 1.04212 8.0048C0.884903 8.00722 0.751971 7.95409 0.643321 7.84543C0.534671 7.73678 0.480347 7.60505 0.480347 7.45025C0.480347 7.29545 0.534671 7.16373 0.643321 7.05508L3.69815 4.00025L0.643321 0.945428C0.539483 0.841591 0.486358 0.711066 0.483946 0.553854C0.481546 0.396654 0.534671 0.263729 0.643321 0.155079C0.751971 0.0464163 0.883702 -0.00791456 1.03851 -0.00791457C1.19331 -0.00791457 1.32504 0.0464162 1.43369 0.155079L4.80436 3.52575C4.87455 3.59593 4.92407 3.66997 4.95292 3.74786C4.98177 3.82573 4.99619 3.90987 4.99619 4.00025Z" fill="#8F95B2"/>
</svg>
