<svg width="60" height="60" viewBox="0 0 60 60" fill="none" xmlns="http://www.w3.org/2000/svg">
<circle cx="30" cy="30" r="30" fill="#F7F7FA"/>
<path d="M30 0C13.4297 0 0 13.4297 0 30C0 46.5703 13.4297 60 30 60C46.5703 60 60 46.5703 60 30C60 13.4297 46.5703 0 30 0ZM30 15C34.6605 15 38.4375 18.7781 38.4375 23.4375C38.4375 28.0969 34.6641 31.875 30 31.875C25.3406 31.875 21.5625 28.0969 21.5625 23.4375C21.5625 18.7781 25.3359 15 30 15ZM30 52.5C23.7973 52.5 18.1758 49.977 14.0977 45.9035C15.9961 41.0039 20.6836 37.5 26.25 37.5H33.75C39.3211 37.5 44.0086 41.0016 45.9023 45.9035C41.8242 49.9805 36.1992 52.5 30 52.5Z" fill="#C6CADA"/>
</svg>
