<svg width="16" height="16" viewBox="0 0 16 16" fill="none" xmlns="http://www.w3.org/2000/svg">
<path d="M1.58335 14.4173H2.73975L12.1233 5.03377L10.9669 3.87737L1.58335 13.2609V14.4173ZM1.0369 15.7923C0.80216 15.7923 0.60539 15.7129 0.446593 15.5541C0.28778 15.3953 0.208374 15.1985 0.208374 14.9637V13.3755C0.208374 13.1519 0.251274 12.9389 0.337074 12.7363C0.422859 12.5337 0.540964 12.3572 0.691388 12.2068L12.2996 0.603862C12.4382 0.477958 12.5912 0.380668 12.7587 0.311995C12.9262 0.243321 13.1019 0.208984 13.2857 0.208984C13.4694 0.208984 13.6475 0.241603 13.8198 0.306839C13.9921 0.37206 14.1446 0.475765 14.2774 0.617955L15.3968 1.75144C15.539 1.88423 15.6403 2.03704 15.7009 2.20986C15.7614 2.38267 15.7917 2.55548 15.7917 2.72828C15.7917 2.91261 15.7602 3.08852 15.6972 3.25601C15.6343 3.42351 15.5341 3.57657 15.3968 3.71519L3.79389 15.3093C3.64347 15.4597 3.46696 15.5778 3.26438 15.6636C3.06178 15.7494 2.84871 15.7923 2.62517 15.7923H1.0369ZM11.5349 4.46571L10.9669 3.87737L12.1233 5.03377L11.5349 4.46571Z" fill="#8F95B2"/>
</svg>
