<svg width="5" height="8" viewBox="0 0 5 8" fill="none" xmlns="http://www.w3.org/2000/svg">
<path d="M0.00380975 3.99975C0.00380976 3.90936 0.0182346 3.82523 0.0470846 3.74735C0.0759342 3.66946 0.125453 3.59543 0.195641 3.52524L3.56631 0.154571C3.67015 0.0507207 3.80067 -0.00240425 3.95788 -0.00480424C4.1151 -0.00721673 4.24803 0.0459083 4.35668 0.154571C4.46533 0.263221 4.51965 0.394946 4.51965 0.549746C4.51965 0.704546 4.46533 0.836271 4.35668 0.94492L1.30185 3.99975L4.35668 7.05457C4.46052 7.15841 4.51364 7.28893 4.51605 7.44615C4.51845 7.60335 4.46533 7.73627 4.35668 7.84492C4.24803 7.95358 4.1163 8.00791 3.96148 8.00791C3.80668 8.00791 3.67496 7.95358 3.56631 7.84492L0.195641 4.47425C0.125453 4.40406 0.0759342 4.33003 0.0470846 4.25214C0.0182345 4.17426 0.00380975 4.09013 0.00380975 3.99975Z" fill="#8F95B2"/>
</svg>
