<svg width="22" height="23" viewBox="0 0 22 23" fill="none" xmlns="http://www.w3.org/2000/svg">
<path d="M10.0834 16.9998C11.8556 16.9998 13.3681 16.3758 14.6209 15.1277C15.8737 13.8796 16.5001 12.3648 16.5001 10.5831C16.5001 8.81093 15.8737 7.29843 14.6209 6.04565C13.3681 4.79287 11.8556 4.16648 10.0834 4.16648C8.30177 4.16648 6.78692 4.79287 5.53883 6.04565C4.29076 7.29843 3.66673 8.81093 3.66673 10.5831C3.66673 12.3648 4.29076 13.8796 5.53883 15.1277C6.78692 16.3758 8.30177 16.9998 10.0834 16.9998ZM10.0834 18.3748C9.0022 18.3748 7.98917 18.1703 7.0443 17.7613C6.09943 17.3523 5.27561 16.7965 4.57283 16.0937C3.87006 15.3909 3.3142 14.5671 2.90523 13.6222C2.49624 12.6774 2.29175 11.6643 2.29175 10.5831C2.29175 9.51135 2.49624 8.50303 2.90523 7.55817C3.3142 6.6133 3.87006 5.78713 4.57283 5.07964C5.27561 4.37217 6.09943 3.81395 7.0443 3.40498C7.98917 2.996 9.0022 2.7915 10.0834 2.7915C11.1552 2.7915 12.1635 2.996 13.1084 3.40498C14.0532 3.81395 14.8794 4.37217 15.5869 5.07964C16.2944 5.78713 16.8526 6.6133 17.2616 7.55817C17.6705 8.50303 17.875 9.51135 17.875 10.5831C17.875 11.5374 17.7131 12.4382 17.3894 13.2856C17.0656 14.1329 16.6181 14.9009 16.047 15.5895L19.2342 18.7768C19.3705 18.9131 19.4348 19.0711 19.4272 19.2509C19.4196 19.4307 19.3476 19.5888 19.2113 19.7251C19.0749 19.852 18.9154 19.9155 18.7327 19.9155C18.5499 19.9155 18.3904 19.852 18.2541 19.7251L15.0757 16.5608C14.387 17.132 13.619 17.5771 12.7717 17.8962C11.9244 18.2153 11.0283 18.3748 10.0834 18.3748Z" fill="#8F95B2"/>
</svg>
