<svg width="18" height="18" viewBox="0 0 18 18" fill="none" xmlns="http://www.w3.org/2000/svg">
<path d="M8.08339 15.0003C9.85561 15.0003 11.3681 14.3763 12.6209 13.1282C13.8737 11.8801 14.5001 10.3653 14.5001 8.58364C14.5001 6.81141 13.8737 5.29891 12.6209 4.04614C11.3681 2.79336 9.85561 2.16697 8.08339 2.16697C6.30177 2.16697 4.78692 2.79336 3.53883 4.04614C2.29076 5.29891 1.66673 6.81141 1.66673 8.58364C1.66673 10.3653 2.29076 11.8801 3.53883 13.1282C4.78692 14.3763 6.30177 15.0003 8.08339 15.0003ZM8.08339 16.3753C7.0022 16.3753 5.98917 16.1708 5.0443 15.7618C4.09943 15.3528 3.27561 14.797 2.57283 14.0942C1.87006 13.3914 1.3142 12.5676 0.905227 11.6227C0.496241 10.6779 0.291748 9.66483 0.291748 8.58364C0.291748 7.51184 0.496241 6.50351 0.905227 5.55866C1.3142 4.61379 1.87006 3.78761 2.57283 3.08013C3.27561 2.37266 4.09943 1.81444 5.0443 1.40547C5.98917 0.996486 7.0022 0.791992 8.08339 0.791992C9.15519 0.791992 10.1635 0.996486 11.1084 1.40547C12.0532 1.81444 12.8794 2.37266 13.5869 3.08013C14.2944 3.78761 14.8526 4.61379 15.2616 5.55866C15.6705 6.50351 15.875 7.51184 15.875 8.58364C15.875 9.5379 15.7131 10.4387 15.3894 11.286C15.0656 12.1334 14.6181 12.9014 14.047 13.59L17.2342 16.7772C17.3705 16.9135 17.4348 17.0716 17.4272 17.2514C17.4196 17.4312 17.3476 17.5893 17.2113 17.7256C17.0749 17.8525 16.9154 17.916 16.7327 17.916C16.5499 17.916 16.3904 17.8525 16.2541 17.7256L13.0757 14.5613C12.387 15.1325 11.619 15.5776 10.7717 15.8967C9.92436 16.2157 9.02826 16.3753 8.08339 16.3753Z" fill="#8F95B2"/>
</svg>
