<svg width="16" height="18" viewBox="0 0 16 18" fill="none" xmlns="http://www.w3.org/2000/svg">
<path d="M3.3077 17.4998C2.81058 17.4998 2.38502 17.3228 2.03102 16.9688C1.67701 16.6148 1.5 16.1892 1.5 15.6921V2.99981H1.25C1.0375 2.99981 0.859375 2.9279 0.715625 2.78408C0.571875 2.64028 0.5 2.46208 0.5 2.24948C0.5 2.0369 0.571875 1.85882 0.715625 1.71523C0.859375 1.57163 1.0375 1.49983 1.25 1.49983H4.99997C4.99997 1.25497 5.08619 1.04632 5.25863 0.873885C5.43106 0.701451 5.63971 0.615234 5.88457 0.615234H10.1154C10.3602 0.615234 10.5689 0.701451 10.7413 0.873885C10.9138 1.04632 11 1.25497 11 1.49983H14.75C14.9625 1.49983 15.1406 1.57174 15.2843 1.71556C15.4281 1.85938 15.5 2.03758 15.5 2.25016C15.5 2.46276 15.4281 2.64085 15.2843 2.78443C15.1406 2.92802 14.9625 2.99981 14.75 2.99981H14.5V15.6921C14.5 16.1892 14.3229 16.6148 13.9689 16.9688C13.6149 17.3228 13.1894 17.4998 12.6922 17.4998H3.3077ZM13 2.99981H2.99997V15.6921C2.99997 15.7818 3.02883 15.8556 3.08652 15.9133C3.14423 15.971 3.21795 15.9998 3.3077 15.9998H12.6922C12.782 15.9998 12.8557 15.971 12.9134 15.9133C12.9711 15.8556 13 15.7818 13 15.6921V2.99981ZM6.15417 13.9998C6.36676 13.9998 6.54484 13.9279 6.68842 13.7842C6.83202 13.6404 6.90382 13.4623 6.90382 13.2498V5.74979C6.90382 5.5373 6.83192 5.35918 6.6881 5.21543C6.54428 5.07168 6.36608 4.99981 6.1535 4.99981C5.9409 4.99981 5.76281 5.07168 5.61922 5.21543C5.47564 5.35918 5.40385 5.5373 5.40385 5.74979V13.2498C5.40385 13.4623 5.47576 13.6404 5.61958 13.7842C5.76337 13.9279 5.94158 13.9998 6.15417 13.9998ZM9.84645 13.9998C10.0591 13.9998 10.2371 13.9279 10.3807 13.7842C10.5243 13.6404 10.5961 13.4623 10.5961 13.2498V5.74979C10.5961 5.5373 10.5242 5.35918 10.3804 5.21543C10.2366 5.07168 10.0584 4.99981 9.84577 4.99981C9.63319 4.99981 9.45511 5.07168 9.31152 5.21543C9.16792 5.35918 9.09613 5.5373 9.09613 5.74979V13.2498C9.09613 13.4623 9.16803 13.6404 9.31185 13.7842C9.45567 13.9279 9.63387 13.9998 9.84645 13.9998Z" fill="#8F95B2"/>
</svg>
